<?xml version="1.0" encoding="UTF-8"?>
<svg width="700pt" height="700pt" version="1.1" viewBox="0 0 700 700" xmlns="http://www.w3.org/2000/svg" xmlns:xlink="http://www.w3.org/1999/xlink">
 <g>
  <path d="m525 216.55v-6.5547c0-2.3203-0.92188-4.5469-2.5625-6.1875s-3.8672-2.5625-6.1875-2.5625h-43.75v-52.5c0-4.1758-2.9492-7.7656-7.043-8.582l-40.625-8.0977h0.003907c2.5938-8.7891 3.9102-17.906 3.9141-27.07 0-48.25-35.324-87.5-78.75-87.5s-78.75 39.25-78.75 87.5c0.003906 9.1641 1.3242 18.281 3.9141 27.07l-40.625 8.0977h0.003907c-4.0938 0.81641-7.043 4.4062-7.043 8.582v52.5h-43.75c-2.3203 0-4.5469 0.92188-6.1875 2.5625s-2.5625 3.8672-2.5625 6.1875v6.5547l-68.973 129.33c-1.2656 2.375-1.3672 5.1992-0.27734 7.6602 1.0938 2.4609 3.2539 4.2852 5.8633 4.9414l9.6562 2.4141-7.4688 66.883c-0.52344 4.6992 2.7812 8.9609 7.4609 9.6289l61.25 8.75c0.41016 0.058594 0.82422 0.089844 1.2383 0.089844h25.418l-7.8828 86.711c-0.22266 2.4453 0.59766 4.875 2.2539 6.6875 1.6602 1.8164 4.0039 2.8516 6.4609 2.8516h280c2.457 0 4.8008-1.0352 6.4609-2.8516 1.6562-1.8125 2.4766-4.2422 2.2539-6.6875l-7.8828-86.711h25.418c0.41406 0 0.82812-0.03125 1.2383-0.089844l61.25-8.75c4.6797-0.66797 7.9844-4.9297 7.4609-9.6289l-7.4688-66.883 9.6562-2.4141c2.6094-0.65625 4.7695-2.4805 5.8633-4.9414 1.0898-2.4609 0.98828-5.2852-0.27734-7.6602zm48.262 127.69-48.262 12.055v-102.55zm-65.762 23.258v61.25h-52.5v-210h52.5zm-132.71-198.58c-4.8242 2.4531-9.9766 4.1914-15.301 5.1602-0.54688 0.097657-1.0938 0.19141-1.6406 0.26953-2.4492 0.375-4.9219 0.58203-7.3984 0.61328-0.32812 0.003906-0.66016-0.003906-0.98828-0.007813-2.4219-0.035156-4.8359-0.23438-7.2266-0.59766-0.60547-0.085937-1.2031-0.19141-1.8047-0.29688v-0.003906c-5.3281-0.96875-10.484-2.7148-15.309-5.1758l-0.44531-0.23437c-10.469-5.5938-19.191-13.969-25.203-24.203-0.23047-0.38672-0.45312-0.77734-0.67969-1.1719-1.4922-2.5664-2.8242-5.2266-3.9844-7.9609-4.0195-9.5977-6.082-19.906-6.0586-30.312 0.015625-2.9258 0.19531-5.8438 0.53125-8.75h121.44c0.33594 2.9062 0.51562 5.8242 0.53125 8.75 0.023438 10.402-2.0352 20.703-6.0508 30.301l-0.007813 0.015625-0.03125 0.066406c-1.1523 2.6992-2.4648 5.3281-3.9375 7.8672-0.23047 0.40234-0.46094 0.80469-0.69922 1.2031-5.9961 10.191-14.676 18.539-25.094 24.129-0.21484 0.11328-0.42578 0.23047-0.64063 0.33984zm-24.789-133.92c12.824 0.51953 25.168 5.0078 35.332 12.844 10.164 7.8398 17.645 18.637 21.406 30.906h-113.48c3.7617-12.27 11.242-23.066 21.406-30.906 10.164-7.8359 22.508-12.324 35.332-12.844zm-105 120.93 36.707-7.3125c0.69141 1.3398 1.4609 2.6211 2.2109 3.9141 0.14844 0.25391 0.28125 0.51562 0.43359 0.76562 1.9688 3.3086 4.1562 6.4844 6.5469 9.5039l0.11719 0.14844c7.0781 9.0078 16.031 16.367 26.238 21.57l0.32031 0.16406c0.60156 0.30078 1.1758 0.64453 1.7852 0.92969 2.7109 1.2734 5.5039 2.3711 8.3594 3.2812 0.13672 0.046875 0.28125 0.074219 0.42188 0.11719v0.003907c2.9609 0.92969 5.9805 1.668 9.0391 2.2031 0.99609 0.18359 1.9883 0.35156 2.9961 0.49219 2.6953 0.37109 5.4062 0.58984 8.125 0.65625 0.57422 0.011719 1.125 0.13672 1.6992 0.13672 0.53906 0 1.0625-0.11719 1.6016-0.12891 2.7773-0.066406 5.5508-0.28906 8.3047-0.67188 0.94922-0.13672 1.8867-0.29297 2.8281-0.46484 3.1602-0.54297 6.2773-1.3047 9.332-2.2773l0.16016-0.042969c2.8438-0.90625 5.6211-1.9961 8.3203-3.2656 0.61328-0.28516 1.1914-0.63281 1.7969-0.93359l0.50391-0.26172c10.156-5.1992 19.066-12.531 26.125-21.496l0.14453-0.17969c2.3867-3.0156 4.5664-6.1797 6.5312-9.4844 0.15625-0.26172 0.29687-0.53125 0.44922-0.79688 0.74609-1.2852 1.5078-2.5508 2.1953-3.8867l36.707 7.3164v45.324h-210zm157.71 66.66v0.003906c-1.2266 0.89062-2.4961 1.7227-3.8047 2.4844-0.28516 0.16797-0.54688 0.33984-0.83984 0.50391-1.6133 0.90234-3.375 1.7656-5.2383 2.5898-0.42578 0.1875-0.87109 0.36719-1.3086 0.55078-1.7305 0.72266-3.5469 1.4102-5.4609 2.0508-0.30859 0.10156-0.59375 0.21484-0.90625 0.31641-2.1602 0.69531-4.4492 1.3203-6.8164 1.8945-0.56641 0.13672-1.1445 0.26562-1.7227 0.39453-2.2734 0.51172-4.6133 0.97266-7.0508 1.3594-0.22656 0.035156-0.44141 0.082031-0.66797 0.11719-2.6172 0.39844-5.3398 0.69141-8.1172 0.92188-0.66797 0.054687-1.3438 0.10547-2.0234 0.14844-2.8594 0.19141-5.7617 0.32812-8.7578 0.32812s-5.8984-0.13672-8.7539-0.32812c-0.67578-0.046875-1.3516-0.09375-2.0234-0.14844-2.7773-0.23047-5.5-0.52734-8.1172-0.92188-0.22656-0.035156-0.44141-0.082031-0.66797-0.11719-2.4336-0.38281-4.7773-0.84766-7.0508-1.3594-0.57812-0.12891-1.1562-0.25781-1.7227-0.39453-2.3672-0.57422-4.6562-1.1992-6.8164-1.8945-0.3125-0.10156-0.59766-0.21484-0.90625-0.31641-1.9141-0.64062-3.7305-1.3281-5.4609-2.0508-0.4375-0.18359-0.88281-0.36328-1.3086-0.55078-1.8633-0.82422-3.625-1.6836-5.2383-2.5898-0.29297-0.16406-0.55469-0.33594-0.83984-0.50391h-0.003906c-1.3086-0.76172-2.5781-1.5938-3.8047-2.4844-0.28906-0.21094-0.59375-0.41797-0.86719-0.62891v-0.003907c-1.1875-0.91016-2.3008-1.9102-3.3359-2.9883l-0.19141-0.21875h114.22l-0.19141 0.21875c-1.0352 1.082-2.1484 2.0781-3.3359 2.9922-0.27344 0.21094-0.57812 0.41797-0.86719 0.62891zm-227.71 31.164v102.55l-48.262-12.055zm-36.598 111.45 36.598 9.1328v53.078l-42.863-6.1289zm54.098 2.2969v-148.75h52.5v210h-52.5zm287.92 157.5h-260.84l7.1602-78.75h27.012c2.3203 0 4.5469-0.92188 6.1875-2.5625s2.5625-3.8672 2.5625-6.1875v-218.75h10.195l0.058594 0.14453c0.13281 0.38281 0.32422 0.75 0.46875 1.1289h0.003906c0.37109 0.98828 0.80078 1.957 1.2773 2.9023 0.25781 0.49609 0.57031 0.97656 0.85547 1.4648 0.47656 0.80859 0.96484 1.6133 1.5195 2.4023 0.35938 0.50391 0.75 1 1.1367 1.4922 0.58203 0.74219 1.1875 1.4688 1.8398 2.1875 0.44531 0.48828 0.90625 0.96875 1.3828 1.4453 0.69531 0.69531 1.4258 1.375 2.1875 2.043 0.51172 0.45312 1.0234 0.90234 1.5664 1.3438 0.83203 0.67187 1.7148 1.3242 2.6133 1.9688 0.55078 0.39453 1.082 0.79687 1.6562 1.1797 1.0547 0.70312 2.1719 1.3672 3.3047 2.0312 0.48828 0.28516 0.94531 0.58594 1.4492 0.86328 1.6641 0.91406 3.3984 1.7891 5.2109 2.6211 0.33984 0.15625 0.71484 0.29297 1.0586 0.44141 1.5 0.66016 3.0273 1.2969 4.6211 1.8945 0.70312 0.26562 1.4453 0.5 2.1641 0.75 1.293 0.44922 2.5898 0.89062 3.9375 1.3008 0.83594 0.25391 1.6953 0.48438 2.5508 0.71875 1.3008 0.35938 2.6133 0.70703 3.957 1.0273 0.91016 0.21875 1.832 0.42188 2.7656 0.62109 1.3594 0.28906 2.7422 0.55859 4.1406 0.80859 0.95312 0.17188 1.9062 0.33594 2.875 0.48828 1.4531 0.22656 2.9375 0.42188 4.4297 0.60156 0.96094 0.11719 1.9102 0.24219 2.8828 0.34375 1.6602 0.16797 3.3516 0.28906 5.0508 0.40234 0.83984 0.054687 1.6602 0.13281 2.5078 0.17578 2.5742 0.12891 5.1797 0.20703 7.832 0.20703s5.2578-0.078125 7.8242-0.20703c0.84766-0.042969 1.6719-0.12109 2.5078-0.17578 1.6992-0.11328 3.3945-0.23438 5.0508-0.40234 0.97656-0.097656 1.9258-0.22656 2.8828-0.34375 1.4922-0.18359 2.9727-0.375 4.4258-0.60156 0.97266-0.15234 1.9219-0.31641 2.875-0.48828 1.3984-0.25 2.7773-0.51953 4.1367-0.80859 0.93359-0.19922 1.8594-0.40234 2.7695-0.62109 1.3438-0.32031 2.6523-0.66797 3.9531-1.0273 0.85547-0.23828 1.7148-0.46875 2.5508-0.72266 1.3438-0.40625 2.6445-0.85156 3.9375-1.3008 0.72266-0.25 1.4609-0.48828 2.1641-0.75 1.5938-0.59766 3.1211-1.2344 4.6211-1.8945 0.34766-0.15234 0.71875-0.28906 1.0586-0.44141 1.8125-0.82812 3.5508-1.6992 5.2109-2.6211 0.50391-0.27734 0.96094-0.57812 1.4492-0.86328 1.1328-0.66016 2.2539-1.3281 3.3047-2.0312 0.57422-0.38281 1.1055-0.78516 1.6562-1.1797 0.89844-0.64453 1.7812-1.293 2.6133-1.9688 0.54297-0.4375 1.0508-0.89062 1.5664-1.3438 0.76172-0.66797 1.4922-1.3477 2.1875-2.043 0.47656-0.47656 0.9375-0.95703 1.3828-1.4492 0.64844-0.71484 1.2539-1.4414 1.832-2.1797 0.39062-0.5 0.78516-0.99219 1.1445-1.5039 0.55469-0.78516 1.043-1.5859 1.5156-2.3945 0.28906-0.48828 0.60156-0.96875 0.85938-1.4688l0.015625 0.007812c0.47656-0.94531 0.90234-1.9141 1.2773-2.9023 0.14844-0.37891 0.33984-0.74609 0.46875-1.1289l0.0625-0.14453h10.195v218.75c0 2.3203 0.92188 4.5469 2.5625 6.1875s3.8672 2.5625 6.1875 2.5625h27.012zm44.578-97.586v-53.078l36.598-9.1367 6.2617 56.086z"/>
 </g>
</svg>
