<?xml version="1.0" encoding="UTF-8"?>
<svg width="700pt" height="700pt" version="1.1" viewBox="0 0 700 500" xmlns="http://www.w3.org/2000/svg" xmlns:xlink="http://www.w3.org/1999/xlink">
 <g>
  <path d="m548.95 55.004c-19.809-9.2305-40.867-13.93-62.77-13.562-15.41 0.25391-30.793 1.5586-46.207 2.0664-32.09 1.0586-64.141 0.72656-96.008-3.8125-12.473-1.7812-24.875-4.0391-37.289-6.1953-10-1.7344-19.945-3.8477-29.988-5.3555-2.8672-0.42969-6.1836 0.13281-8.9375 1.1758-34.895 13.176-61.402 35.867-78.52 69.289-2.5742 5.0273-2.5039 9.375 0.86328 13.738 2.7812 3.6055 5.6445 7.1641 8.7578 11.109-2.582 1.4844-4.5547 3.0312-6.793 3.832-6.7031 2.3906-9.6367 7.4531-10.258 14.055-1.1641 12.266-2.3086 24.539-3.0703 36.836-0.58984 9.5352-0.94531 19.117-0.72266 28.66 0.23047 9.5156 0.8125 19.074 2.1328 28.488 2.2695 16.152 5.0977 32.223 7.9453 48.289 1.7305 9.7344 0.09375 20.641 10 27.648-4.8906 6.293-4.9453 12.441-2.1523 18.891 0.71875 1.6445 1.1094 3.6406 0.96484 5.4141-1.2891 15.328-2.1914 30.711-4.375 45.914-1.0586 7.4297-4.5977 14.504-7.0742 21.93-4.2461-0.78516-7.5703-1.3086-10.859-2.0234-7.8242-1.7031-15.617-3.5273-23.445-5.2305-6.3008-1.3711-11.508 0.12891-15.344 5.7109-7.5664 11.016-13.914 22.613-15.25 36.133-0.50391 5.1172 0.23047 10.461 1.1367 15.574 0.51562 2.9023 1.8125 6.418 3.9648 8.1328 7.8945 6.2656 14.895 14.012 25.199 16.715 20.562 5.3867 41.008 11.234 61.684 16.152 29.07 6.9141 58.457 12.539 87.41 19.875 26.039 6.5977 52.246 11.934 78.785 15.934 14.281 2.1523 28.242 3.625 40.941-5.4648 0.71094-0.50781 1.8047-0.46094 2.6211-0.85547 14.695-7.1562 27.43-16.559 35.559-31.199 10.586-19.047 17.863-39.184 20.703-60.895 1.2422-9.4688 3.2539-18.832 4.6719-28.281 1.9531-13.094 4.25-26.176 5.3633-39.344 2.0703-24.406-0.69922-48.625-4.3438-72.738-1.293-8.5391-4.7383-15.941-12.125-20.965-1.2266-0.83984-2.8242-1.1484-4.25-1.7031 7.7188-5.4336 8.1719-11.426 7.8047-17.359-0.96484-15.668-1.5117-31.426-3.6641-46.949-3.4492-24.848 1.1875-48.352 9.5078-72.18 7.8398 0.35938 15.809 0.98438 23.777 1.0352 16.645 0.11328 33.297 0.16406 49.934-0.32422 3.7109-0.10547 8.2891-1.5508 10.871-4.0312 8.1992-7.8867 13.875-17.438 13.441-29.379-0.73828-21.309-11.816-36.004-30.594-44.75zm-168.1 467.05c-26.23-3.8398-51.992-10.062-77.918-15.5-40.746-8.5352-81.098-18.535-121.5-28.402-6.5859-1.6055-13.031-3.8008-19.656-5.1875-11.305-2.3594-20.379-8.5508-28.516-16.234-2.0625-1.9414-3.5664-5.168-3.9883-8.0039-1.1016-7.3477-1.1914-14.777 2.043-21.797 2.1953-4.7617 4.2969-9.5664 6.6602-14.242 4.375-8.6562 7.5547-10.051 17.078-7.8945 13.523 3.0625 27.066 6.0352 40.555 9.2227 17.969 4.25 35.723 9.7227 53.891 12.77 23.375 3.9141 47.113 5.6211 70.605 8.8945 14.605 2.0312 29.125 4.8945 43.551 7.9688 10.164 2.168 20.121 5.3125 30.352 8.0742-8.9336 14.824-11.367 30.141-10.336 45.863 0.6875 10.555 5.1406 19.711 17.734 24.629-8.1641 2.5391-14.48 0.73047-20.551-0.16016zm96.457-402.48c-2.5078 5.9258-4.7383 11.984-6.7461 18.098-1.4375 4.3789-1.9102 9.0938-3.5117 13.402-6.0859 16.414-5.3477 33.348-4.0469 50.289 1.1992 15.656 2.9922 31.277 4.2734 46.93 0.33984 4.1602 0.64453 8.2266-3.9805 11.391-5.9375 4.0586-5.8672 9.6133-0.85547 14.723 1.0742 1.0938 2.3203 2.0625 3.6289 2.8438 5.1641 3.0703 7.9961 7.8906 8.9375 13.461 4.2383 24.98 7.2227 50.211 4.8047 75.477-1.9648 20.512-6.6602 40.75-9.3008 61.215-2.0312 15.734-6.0859 30.762-11.727 45.504-6.7266 17.59-17.602 31.254-33.797 41.43-10.473 6.5781-31.594 1.2383-34.008-13.664-2.1602-13.371 0.58203-25.742 4.207-38.16 1.2812-4.3789 4.4453-5.4023 8.8594-3.5039 2.75 1.1797 5.1289 3.2422 7.5938 5.0234 2.3086 1.6641 4.5117 3.4648 8.0703 6.2227 0.11328-7.4102-2.6992-11-6.5391-14.348-8.3438-7.2812-18.301-11.363-28.656-14.41-19.82-5.8359-39.844-10.734-60.453-12.98-19.605-2.1406-39.133-5.0391-58.773-6.6367-17.723-1.4375-34.281-7.3008-51.277-11.559-6.5195-1.6289-13.07-3.1406-20.254-4.8555 9.5938-22.035 11.457-44.695 11.492-67.625 0.003906-3.3594-0.12891-6.8945-1.1484-10.039-1.4336-4.4258-1.5117-8.1719 1.1328-12.258 2.6758-4.1367 1.9102-8.6758-1.9805-11.602-4.2344-3.1797-4.8945-7.3477-5.6445-12.035-3.2305-20.055-6.7656-40.059-10.199-60.078-0.36328-2.1289-1.0977-4.2383-1.1328-6.3633-0.39062-27.754-0.62109-55.508 3.3164-83.098 0.59766-4.1836 2.75-6.332 6.3672-8.1992 14.23-7.3398 14.57-9.5664 4.2266-21.449-5.6719-6.5234-5.3047-6.8438-1.2383-15.316 12.758-26.602 35.027-43.293 59.465-57.719 7.0742-4.1758 14.301-4.4805 22.91-2.6367 28.852 6.1758 57.629 13.445 87.438 13.766 27.121 0.28516 54.246 0.89062 81.363 0.90234 14.168 0.003906 28.34-1.3789 42.508-1.418 18.121-0.042969 35.375 4.5352 52.023 11.52 1.3203 0.55469 2.5078 1.4336 5.1445 2.9727-3.6172 0.56641-5.5938 0.96875-7.5898 1.1719-16.09 1.6172-29.109 9.1562-40.527 20.254-10.051 9.7656-18.867 20.355-24.375 33.359zm7.5938 6.1992c4.0586-13.445 12.215-23.516 22.34-32.184 0.98047-0.83984 2.9062-0.92969 4.3438-0.8125 7.0273 0.57031 14.043 1.3281 21.145 2.0273 1.6562 10.797 3.1797 20.703 4.7539 30.969h-52.582zm78.168-5.9023c-5.1367 6.4102-15.355 5.0586-17.742-2.8047-2-6.5859-2.5273-13.828-2.4961-20.77 0.039062-8.6914-0.65625-10.121-9.4453-10.578-2.4531-0.12891-4.9062-0.023437-7.3633-0.10547-2.0898-0.066407-4.1758-0.24609-6.2617-0.37891 10.543-10.461 23.379-12.234 36.656-10.27 6.2812 0.92969 10.68 5.9141 12.84 12.102 4.2031 12.066 1.6211 23.055-6.1875 32.805z"/>
  <path d="m260.68 169.3c0.11328-3.875 0.20312-7.7578 0.33984-13.188 4.0977 2.1445 6.6875 3.5898 9.3477 4.8789 4.9844 2.4141 9.9023 5.0469 15.062 7.0156 5.6602 2.1602 7.9453 0.81641 9.7812-4.7227 2.0312-6.1328 4.0664-12.266 6.1055-18.395 3.5781-10.781 1.9922-13.289-9.0234-14.453-4.9062-0.51562-9.8047-1.0625-14.684-1.7695-3.1758-0.46094-6.3125-1.2109-10.477-2.0312 4.6367-7.8906 8.707-14.41 12.355-21.156 2.5977-4.8047 1.7969-6.8867-3.0117-8.4844-5.2539-1.7422-10.586-3.3828-16-4.4844-11.969-2.4375-13.938-0.75781-14.777 11.664-0.42969 6.3516-0.85547 12.699-1.4492 21.461-5.6445-3.9414-9.4922-6.2422-12.879-9.0898-6.1094-5.1172-8.3555-4.8984-11.496 2.4648-2.7773 6.5078-5.0977 13.223-7.4648 19.902-1.3984 3.9414-0.089844 6.7578 4.2344 7.4531 6.0156 0.96484 12.062 1.6953 18.738 2.6211-1.9258 6.6133-3.8594 13.031-5.6602 19.477-1.9922 7.1133-0.65625 9.625 6.4219 11.414 5.6562 1.4336 11.406 2.5039 17.137 3.6719 4.0898 0.83984 6.6758-0.69922 7.0664-5.0078 0.25781-3.0664 0.24219-6.1562 0.33203-9.2422zm-5.7852-16.109c-0.99219 4.7773-1.043 9.75-1.5 14.637-0.19531 2.0938-0.39062 4.1953-0.66016 7.1172-5.4922-0.92578-10.516-1.7695-15.527-2.6094 0.20312-10.859 7.2344-19.57 6.7305-30.969-7.8867-0.48047-15.254-0.92969-23.363-1.4219 2.0625-6.5898 3.6953-11.789 5.5273-17.633 4.457 2.5664 8.1797 5.1914 12.27 6.957 7.5586 3.2578 10.938 1.3398 11.918-6.7969 0.95312-7.8945 1.3164-15.859 2.0938-25.742 8.0312 2.0117 14.441 3.6133 21.48 5.375-3.8633 10.543-11.945 18.109-14.039 29.305 11.664 4.6484 23.871 4.0586 36.309 6.9453-2.6211 7.4648-5.1172 14.598-8.0234 22.871-4.5859-2.207-8.8945-4.1953-13.121-6.332-3.8359-1.9492-7.4609-4.3633-11.402-6.0469-5.2109-2.2266-7.5625-1.1406-8.6914 4.3438z"/>
  <path d="m325.08 335.5c-8.1523-2.6992-16.32-5.3555-24.477-8.0234-0.86719-0.28516-1.7266-0.57812-3.0977-1.0312-0.72266 0.55859-2.0391 1.0859-2.3906 1.9805-0.36328 0.94141-0.21875 2.75 0.4375 3.293 2.0781 1.7188 4.3242 3.5273 6.8203 4.3945 8.1211 2.8008 16.367 5.1953 24.574 7.7383 0.58203 0.18359 1.3438 0.58203 1.7578 0.375 1.4883-0.76172 3.2812-1.4727 4.0977-2.75 0.41016-0.63672-0.72656-2.9688-1.7578-3.6445-1.7422-1.1562-3.9297-1.6602-5.9648-2.332z"/>
  <path d="m327.84 234.84c-0.15234-0.99609-0.29688-2-0.44922-3-2.4961-0.039063-5.0898-0.53906-7.4648-0.035156-6.0039 1.2812-11.949 2.9062-17.852 4.6133-3.5352 1.0195-7.1445 2.1016-10.316 3.8711-1.4336 0.80078-1.8828 3.3594-2.7656 5.125 1.8633 0.53125 3.9609 1.8984 5.5625 1.4609 8.8984-2.4297 17.711-5.168 26.461-8.0859 2.4453-0.81641 4.5625-2.6094 6.8242-3.9492z"/>
  <path d="m376.27 359.41c-9.0156-6.6797-19.074-11.172-29.934-13.828-1.5273-0.375-3.3477 0.39844-5.0273 0.64453-0.32031 0.77344-0.64453 1.5469-0.96875 2.3203 2.3984 1.6055 4.6602 3.4883 7.2109 4.7773 8.1914 4.1328 16.492 8.0352 24.734 12.051 0.81641 0.40234 1.5195 1.3945 2.3086 1.4336 1.3945 0.066406 3.332 0.074219 4.0781-0.76172 0.71875-0.80469 0.55469-2.8164 0.13281-4.0781-0.33984-1.0195-1.5625-1.8359-2.5352-2.5586z"/>
  <path d="m267.48 282.5c0.32031-8.7148 4.2734-15.848 9.3516-22.586 1.0195-1.3594 1.4609-3.1641 2.9727-6.5742-3.4492 0.82422-5.1797 0.73828-6.1719 1.5586-8.5078 7.0039-13.188 16.055-13.352 27.113-0.027344 1.707 1.4766 4.5742 2.8125 4.9336 3.0156 0.82422 4.2852-1.7539 4.3867-4.4453z"/>
  <path d="m391.87 378.31c-0.68359 0.26953-1.3594 0.53906-2.0312 0.80469 1.6523 6.0547 3.4883 12.062 4.9102 18.168 1.4844 6.3633-2.6992 13.047 0.32422 20.305 8.3008-4.7383 6.4062-11.973 6.5195-18.285 0.14844-8.6367-3.2266-15.703-9.7227-20.992z"/>
  <path d="m349.84 227.27c-1.4688 0.25391-2.543 2.7617-3.8008 4.2266 1.7734 0.83594 3.6641 2.5586 5.293 2.3477 8.4961-1.1406 16.953-2.6445 25.355-4.3398 1.9023-0.37891 3.5547-2.0234 6.8359-3.9922-2.5312-1.3477-3.6172-2.4531-4.543-2.3398-9.7383 1.1953-19.477 2.4297-29.141 4.0977z"/>
  <path d="m270.83 305.13c-1.8242-1.6562-2.8789-4.1719-5.2344-7.7344-1.2383 3.1133-1.8438 3.9531-1.8633 4.8008-0.15234 7.8281 11.77 21.258 19.488 21.758 1.2266 0.078125 3.4883-1.0547 3.6133-1.875 0.22266-1.4609-0.35156-3.6406-1.4219-4.6016-4.7266-4.2734-9.8789-8.0625-14.582-12.348z"/>
  <path d="m396.73 218.73c-2.3594 1.2773-1.4336 5.0234 1.3047 5.6602 1.7305 0.40234 3.7852 0.54297 5.4336-0.003906 9.0625-3 15.645-8.9102 20.312-16.891-0.5-0.58203-1.0039-1.1719-1.5-1.7578-8.543 4.3008-17.156 8.4492-25.551 12.992z"/>
  <path d="m393.23 126.47c-1.0039-1.5352-2.75-3.7617-4.0977-3.6914-7.2578 0.40234-14.52 1.2227-21.699 2.3789-1.5977 0.25781-2.8789 2.4453-4.3047 3.7461 0.33594 0.92578 0.67188 1.8555 1.0078 2.7773 8.9258-0.63281 17.859-1.1758 26.762-2.043 0.93359-0.085938 2.6094-2.7461 2.332-3.168z"/>
  <path d="m412.05 132.24c-1.3203-1.2695-4.1484-0.98047-6.2812-1.4062-0.125 0.62891-0.25391 1.2539-0.375 1.8828 3.8594 5.0859 7.7109 10.168 11.586 15.25 0.92969 1.2148 1.6914 2.8672 2.9336 3.4492 1.4375 0.67578 3.8398 1.082 4.8711 0.32031 0.94531-0.69922 1.4609-3.7812 0.74609-4.6602-4.2188-5.168-8.668-10.207-13.48-14.836z"/>
  <path d="m325.51 140.72c5.6562-1.4492 11.289-3.0859 16.738-5.1562 1.5742-0.59375 3.6406-3.0234 3.4883-4.3945-0.34766-3.1484-3.3203-3.3867-5.7891-2.5273-6.3711 2.2227-12.691 4.6328-18.93 7.2109-1.1133 0.46094-1.7461 2.1055-3.9609 4.9453 4.0781 0.003906 6.3906 0.45312 8.4531-0.078125z"/>
  <path d="m427.41 166.77c-0.26953 9.6875-0.55469 18.223 0.19531 27.957 8.5508-2.7383 7.4805-8.2305 6.9219-12.812-0.63281-5.1602 0.51562-11.531-7.1172-15.145z"/>
 </g>
</svg>
