<?xml version="1.0" encoding="UTF-8"?>
<svg  width="700pt" height="700pt" version="1.1" viewBox="0 0 700 700" xmlns="http://www.w3.org/2000/svg" xmlns:xlink="http://www.w3.org/1999/xlink">
 <g>
  <path d="m323.75 306.25c0-2.3203-0.92188-4.5469-2.5625-6.1875s-3.8672-2.5625-6.1875-2.5625h-43.75c-12.27 0.03125-24.418 2.4102-35.797 7l1.6797-8.3555c1.2227-5.9609 0.63672-12.148-1.6914-17.77-2.3242-5.625-6.2773-10.422-11.355-13.773-3.707-2.4922-5.9375-6.6641-5.9492-11.133 0-1.4258 0.23438-2.8398 0.69922-4.1914l1.5469-4.7148h0.003907c1.7461-5.0625 2.0898-10.508 0.98828-15.75l-6.2734-31.367c-1.1094-6.0312-4.0312-11.578-8.3828-15.898l-16.625-16.52v-0.003906c-1.9453-1.9766-3.2305-4.5078-3.6836-7.2422l-3.9375-23.52c-1.3359-8.1836-5.543-15.625-11.867-20.988-6.3242-5.3594-14.352-8.293-22.645-8.2734h-16.012c-11.703 0.003906-22.723 5.5156-29.75 14.875l-9.2461 12.301c-3.6562 4.8047-5.4375 10.773-5.0195 16.797 0.41797 6.0195 3.0078 11.688 7.293 15.938 0.95703 0.96875 1.6328 2.1797 1.9492 3.5 1.1367 4.6992 5.8633 7.5938 10.562 6.457 4.6992-1.1328 7.5898-5.8594 6.457-10.559-1.0742-4.4375-3.3477-8.4922-6.5703-11.727-2.6836-2.6406-2.9922-6.8555-0.72656-9.8594l9.3203-12.348c3.7148-4.957 9.5508-7.875 15.75-7.875h15.992c0.35937 0 0.69141 0.070312 1.043 0.097656l-11.219 11.215c-1.6875 1.6328-2.6484 3.8711-2.668 6.2188-0.023438 2.3477 0.90234 4.6055 2.5625 6.2617 1.6562 1.6602 3.9141 2.5859 6.2617 2.5625 2.3477-0.019531 4.5859-0.98047 6.2188-2.668l13.598-13.598c0.69531 1.4492 1.1914 2.9844 1.4766 4.5664l3.9375 23.625c1.0625 6.3203 4.0625 12.152 8.5859 16.695l16.625 16.527c1.8555 1.8516 3.0977 4.2266 3.5586 6.8086l5.25 26.441c-6.625-0.59375-12.48-4.5625-15.488-10.5l-0.92578-1.8477v0.003906c-1.0273-2.0977-2.8477-3.6953-5.0547-4.4414-2.2109-0.74609-4.6289-0.57812-6.7148 0.46484-2.0859 1.0391-3.668 2.875-4.3984 5.0898-0.73047 2.2148-0.54297 4.6289 0.51562 6.707l0.92578 1.8477c5.7344 11.527 17.082 19.219 29.918 20.266-0.88281 2.832-1.3359 5.7812-1.3477 8.75 0.015625 10.312 5.168 19.941 13.738 25.68 4.4492 2.957 6.6641 8.3164 5.5977 13.555l-2.1094 10.5c-0.72266 3.8008-1.1602 7.6562-1.3008 11.523-12.016 8.3086-21.977 19.25-29.121 31.988-7.4414-10.961-17.578-19.824-29.438-25.73-3.6836-1.8828-6.1719-5.4961-6.6133-9.6094l-1.6523-15.312c0-0.30469-0.13281-0.59375-0.17578-0.875 0.18359-0.15625 0.40234-0.21875 0.57812-0.38672l5.1289-5.1289-0.003906 0.003906c6.3047-6.2695 14.832-9.793 23.723-9.8008 4.832 0 8.75-3.918 8.75-8.75s-3.918-8.75-8.75-8.75c-13.52 0.035156-26.477 5.4023-36.059 14.938l-1.3984 1.3906c-0.69141-0.70703-1.3203-1.4688-2.0898-2.1172l-14.879-12.461c-3.543-2.9414-5.0898-7.6484-3.9883-12.117l2.082-8.0781c0.60547-2.3945 0.90234-4.8555 0.875-7.3242 0-0.33203-0.10547-0.64062-0.11328-0.96094 5.8633-1.0234 11.34-3.6133 15.852-7.4961 4.5117-3.8828 7.8867-8.918 9.7656-14.562 1.5312-4.5938-0.94922-9.5547-5.543-11.082-4.5898-1.5312-9.5508 0.95312-11.082 5.543-1.0273 3.0781-2.9961 5.7539-5.6289 7.6523-2.6328 1.8984-5.7969 2.9219-9.043 2.9258-0.14062 0-0.26172 0.070312-0.40234 0.078125-1.9375-2.6328-4.3047-4.9219-7-6.7734-4.7148-3.1523-6.5703-9.1836-4.4453-14.445 0.94531-2.1641 0.97656-4.6211 0.082031-6.8086s-2.6367-3.9219-4.8281-4.8047c-2.1914-0.88672-4.6484-0.84766-6.8086 0.10938-2.1641 0.95312-3.8438 2.7422-4.668 4.9609-2.5234 6.293-2.8047 13.266-0.78906 19.742 2.0117 6.4766 6.1914 12.062 11.84 15.816 3.3672 2.2383 5.3789 6.0195 5.3477 10.062 0.007813 0.97266-0.10156 1.9414-0.33203 2.8867l-2.1172 8.1992c-1.3633 5.3789-1.1797 11.035 0.53125 16.312 1.7148 5.2773 4.8828 9.9609 9.1445 13.516l14.918 12.531c2.375 1.9688 3.8711 4.8008 4.1562 7.875l1.6641 15.426c1.0898 9.9922 7.1836 18.742 16.18 23.23 13.043 6.5273 23.246 17.605 28.68 31.141-3.3477 13.5-3.8398 27.551-1.4414 41.25l6.0625 36.398-7.9883 22.496c-0.33594 0.94141-0.50391 1.9336-0.50781 2.9336v33.25c0 0.83984 0.12109 1.6758 0.35938 2.4844l8.75 29.645c1.4219 4.5625 6.2461 7.1406 10.828 5.7891 4.5859-1.3555 7.2383-6.1367 5.9531-10.742l-8.3906-28.473v-30.449l1.3633-3.8398 8.3047 16.625c2.1602 4.3242 7.418 6.0781 11.742 3.918 4.3281-2.1602 6.082-7.418 3.9219-11.742l-16.922-33.828-6.2227-37.344c-3.1445-16.484-0.84375-33.547 6.5625-48.605 6.6211-12.852 16.66-23.621 29.012-31.133 12.352-7.5117 26.535-11.469 40.988-11.438h43.75c2.3203 0 4.5469-0.92188 6.1875-2.5625s2.5625-3.8672 2.5625-6.1875z"/>
  <path d="m253.75 437.5c-4.832 0-8.75 3.918-8.75 8.75v47.094l-12.66 6.3281v-0.003906c-4.3281 2.1602-6.082 7.418-3.9219 11.742 2.1602 4.3281 7.418 6.082 11.742 3.9219l4.8398-2.4258v20.844c0 4.832 3.918 8.75 8.75 8.75s8.75-3.918 8.75-8.75v-87.5c0-2.3203-0.92188-4.5469-2.5625-6.1875s-3.8672-2.5625-6.1875-2.5625z"/>
  <path d="m385 446.25v-52.5c0-4.832-3.918-8.75-8.75-8.75s-8.75 3.918-8.75 8.75v52.5c0 4.832 3.918 8.75 8.75 8.75s8.75-3.918 8.75-8.75z" stroke="#000" stroke-width="1"/>
  <path d="m297.5 446.25h17.5c4.832 0 8.75-3.918 8.75-8.75s-3.918-8.75-8.75-8.75h-17.5c-4.832 0-8.75 3.918-8.75 8.75s3.918 8.75 8.75 8.75z"/>
  <path d="m316.86 246.04c9.793 5.043 20.641 7.6836 31.656 7.707h55.477c11.016-0.023438 21.863-2.6641 31.656-7.707 2.1016-1.082 3.6719-2.9688 4.3633-5.2266 0.6875-2.2617 0.43359-4.7031-0.70703-6.7695l-20.387-37.012v-0.003906c-1.6484-2.9531-4.832-4.7109-8.207-4.5312-3.375 0.20703-6.332 2.3438-7.5859 5.4844l-15.293 38.266h-23.156l-15.297-38.246h0.003906c-1.25-3.1484-4.207-5.293-7.5859-5.5039-3.3711-0.16797-6.5469 1.5781-8.207 4.5156l-20.387 37.012c-1.1406 2.0703-1.3945 4.5117-0.70703 6.7695 0.69141 2.2617 2.2617 4.1445 4.3633 5.2266zm95.656-24.367 6.7461 12.25v-0.003906c-4.0781 1.2734-8.293 2.0312-12.559 2.2578zm-72.52 0 5.8086 14.5v-0.003906c-4.2656-0.22656-8.4805-0.98438-12.559-2.2578z"/>
  <path d="m385 132.67v7.332c0 2.3203 0.92188 4.5469 2.5625 6.1875s3.8672 2.5625 6.1875 2.5625h17.5c11.598-0.015625 22.719-4.6289 30.922-12.828 8.1992-8.2031 12.812-19.324 12.828-30.922v-8.75c-0.003906-2.8125-1.3555-5.4492-3.6367-7.0938-2.2812-1.6406-5.2109-2.0898-7.8789-1.2031l-34.555 11.516c-6.9688 2.3164-13.035 6.7695-17.332 12.73-4.2969 5.9609-6.6055 13.121-6.5977 20.469zm52.273-24.168c-0.84766 6.3008-3.9531 12.078-8.7383 16.262-4.7852 4.1836-10.93 6.4883-17.285 6.4883h-8.6992c0.28125-3.4219 1.5586-6.6836 3.6797-9.3828 2.1172-2.6992 4.9844-4.7148 8.2383-5.7969z"/>
  <path d="m309.02 87.953c-2.6641-0.90234-5.5977-0.45703-7.875 1.1914-2.2852 1.6445-3.6406 4.2891-3.6406 7.1055v8.75c0.015625 11.598 4.6289 22.719 12.828 30.922 8.2031 8.1992 19.324 12.812 30.922 12.828h17.5c2.3203 0 4.5469-0.92188 6.1875-2.5625s2.5625-3.8672 2.5625-6.1875v-7.332c0.007812-7.3477-2.3008-14.508-6.5977-20.469-4.2969-5.9609-10.363-10.414-17.332-12.73zm40.934 43.297h-8.6992c-6.3555 0-12.5-2.3047-17.285-6.4883-4.7852-4.1836-7.8906-9.9609-8.7383-16.262l22.812 7.6055c3.25 1.082 6.1094 3.0938 8.2266 5.7852s3.3984 5.9453 3.6836 9.3594z"/>
  <path d="m350 166.25c-4.832 0-8.75 3.918-8.75 8.75s3.918 8.75 8.75 8.75c3.6367-0.011719 7.2031 0.99609 10.297 2.9062s5.5859 4.6523 7.2031 7.9102l0.875 1.8477v-0.003906c1.4805 2.9727 4.5117 4.8477 7.832 4.8477 3.3164 0 6.3516-1.875 7.832-4.8477l0.875-1.8477v0.003906c1.6211-3.2734 4.1289-6.0195 7.2383-7.9336 3.1133-1.9141 6.6953-2.9102 10.348-2.8828 4.832 0 8.75-3.918 8.75-8.75s-3.918-8.75-8.75-8.75c-9.8477-0.03125-19.301 3.8789-26.25 10.859-6.9492-6.9805-16.402-10.891-26.25-10.859z"/>
  <path d="m401.62 74.84c-1.0352-2.0781-2.8555-3.6602-5.0586-4.3945-2.2031-0.73437-4.6055-0.56641-6.6836 0.47266l-13.633 6.8008-13.59-6.7969v-0.003906c-4.3242-2.1602-9.582-0.40625-11.742 3.9219-2.1602 4.3242-0.40625 9.582 3.9219 11.742l17.5 8.75c2.4609 1.2305 5.3594 1.2305 7.8203 0l17.5-8.75c2.0859-1.0312 3.6758-2.8477 4.4219-5.0508 0.74219-2.2031 0.57812-4.6094-0.45703-6.6914z"/>
  <path d="m455 201.25v-5.1289c-0.011719-5.6055 2.2188-10.984 6.1953-14.934 3.418-3.4219 3.4141-8.9648-0.007812-12.383-3.4219-3.418-8.9648-3.4141-12.383 0.007812-7.2617 7.2305-11.332 17.062-11.305 27.309v5.1289c0 4.832 3.918 8.75 8.75 8.75s8.75-3.918 8.75-8.75z"/>
  <path d="m306.25 210c2.3203 0 4.5469-0.92188 6.1875-2.5625s2.5625-3.8672 2.5625-6.1875v-5.1289c0.027344-10.246-4.043-20.078-11.305-27.309-3.418-3.4219-8.9609-3.4258-12.383-0.007812-3.4219 3.418-3.4258 8.9609-0.007812 12.383 3.9766 3.9492 6.207 9.3281 6.1953 14.934v5.1289c0 2.3203 0.92188 4.5469 2.5625 6.1875s3.8672 2.5625 6.1875 2.5625z"/>
  <path d="m422.21 441.82c-2.0781-1.0391-4.4805-1.2109-6.6836-0.48047-2.2031 0.73438-4.0234 2.3125-5.0586 4.3906l-16.203 32.375-11.832-11.832c-3.418-3.4141-8.957-3.4141-12.375 0l-14.934 14.973h-45.258l-14.938-14.938h0.003906c-3.4336-3.3164-8.8906-3.2656-12.266 0.10938s-3.4258 8.832-0.10938 12.266l17.5 17.5c1.6406 1.6406 3.8672 2.5625 6.1875 2.5625h52.5c2.3203 0 4.5469-0.92188 6.1875-2.5625l11.312-11.316 9.7734 9.7734-17.648 35.195c-1.0391 2.0742-1.207 4.4805-0.47266 6.6836 0.73438 2.1992 2.3164 4.0195 4.3945 5.0586 4.3242 2.1602 9.582 0.40625 11.742-3.9219l42.086-84.094c1.0391-2.0781 1.2109-4.4805 0.47656-6.6836-0.73437-2.2031-2.3125-4.0234-4.3867-5.0586z"/>
  <path d="m611.84 346.65c-1.3555-3.2695-4.5469-5.3984-8.0859-5.3984h-31.379l2.5625-2.5625h0.003906c3.3164-3.4336 3.2656-8.8906-0.10938-12.266s-8.832-3.4258-12.266-0.10938l-65.539 65.539-39.887-19.977 30.172-82.949c2.3359 0.16797 4.6562 0.65625 7 1.0078l-0.38672 0.25391v-0.003906c-3.0742 2.0547-4.5273 5.8125-3.6328 9.3984 2.418 9.6875 8.0039 18.293 15.867 24.449 7.8633 6.1523 17.555 9.5078 27.543 9.5273 3.6914 0 7.3711-0.45703 10.953-1.3555 3.4492-0.86328 6.0312-3.7266 6.5352-7.2461l8.75-61.25c0.49219-3.418-1.0742-6.8047-3.9922-8.6445-2.9219-1.8438-6.6523-1.793-9.5234 0.12109l-32.141 21.43c-10.656-3.5234-21.805-5.3359-33.031-5.3633-3.6797 0-6.9648 2.3008-8.2266 5.7578l-7.4531 20.492h-28.07v-18.051c18.902-12.137 33.812-29.566 42.875-50.121 3.4492 1.3594 7.1172 2.0742 10.824 2.1094 5.9492-0.03125 11.762-1.7852 16.738-5.0469 5.4922-3.6641 9.6328-9.0234 11.785-15.266 2.1562-6.2383 2.2031-13.012 0.14062-19.281l-0.78906-2.5391h0.003906c-1.0664-3.1484-0.82422-6.5977 0.66406-9.5703l4.8555-9.625c12.168-24.477 12.168-53.242 0-77.719-1.0273-2.0938-2.8516-3.6914-5.0625-4.4336-2.2109-0.74609-4.6289-0.57422-6.7148 0.46875l-14.559 7.3242c-4.1602 2.0664-8.1445 4.4727-11.91 7.1953-4.0391-15.691-11.383-30.336-21.535-42.965-1.4492-1.8203-3.5664-2.9922-5.8828-3.2461-2.3125-0.25781-4.6328 0.41797-6.4492 1.8789-1.8125 1.4609-2.9727 3.5859-3.2148 5.8984-0.24609 2.3164 0.44531 4.6367 1.9141 6.4414 13.852 17.039 21.379 38.34 21.316 60.297v52.5c0 34.387-18.344 66.16-48.125 83.355-29.781 17.191-66.469 17.191-96.25 0-29.781-17.195-48.125-48.969-48.125-83.355v-52.5c-0.035156-23.008 8.1875-45.262 23.168-62.723 14.984-17.461 35.73-28.969 58.477-32.434 22.746-3.4609 45.98 1.3516 65.477 13.562 4.1094 2.5625 9.5156 1.3086 12.078-2.8008 2.5586-4.1055 1.3047-9.5117-2.8008-12.074-30.723-19.246-68.789-22.656-102.44-9.1719-33.648 13.488-58.828 42.242-67.754 77.379-3.7773-2.7266-7.7695-5.1367-11.938-7.2109l-14.613-7.3516c-2.0859-1.043-4.5-1.2148-6.7148-0.46875-2.2109 0.74219-4.0312 2.3398-5.0625 4.4336-12.191 24.504-12.191 53.305 0 77.805l4.8047 9.5039c1.5234 3.0742 1.7422 6.6328 0.60547 9.8711l-0.64844 2.082c-2.1055 6.2969-2.0781 13.109 0.070312 19.395 2.1523 6.2812 6.3086 11.68 11.828 15.367 4.9688 3.25 10.77 4.9961 16.703 5.0234 3.707-0.035156 7.3789-0.75 10.824-2.1094 11.918 27.344 34.113 48.906 61.793 60.023 27.68 11.117 58.621 10.902 86.145-0.60156v17.5c0 2.3203 0.92188 4.5469 2.5625 6.1875s3.8672 2.5625 6.1875 2.5625h30.457l-9.7734 26.891c-1.0117-0.41016-2.0898-0.62891-3.1836-0.64062h-52.5c-2.3203 0-4.5469 0.92188-6.1875 2.5625l-11.312 11.316-11.312-11.312v-0.003906c-1.6406-1.6406-3.8672-2.5625-6.1875-2.5625h-52.5c-4.832 0-8.75 3.918-8.75 8.75s3.918 8.75 8.75 8.75h48.879l14.938 14.938h-0.003906c3.418 3.4141 8.957 3.4141 12.375 0l14.934-14.938h45.93l-5.25 14.508c-1.3594 3.832 0.12109 8.0938 3.5625 10.254l-17.875 35.742-0.003906 0.003906c-1.043 2.0742-1.2188 4.4805-0.48828 6.6875 0.72656 2.2031 2.3047 4.0312 4.3789 5.0742 4.3242 2.1758 9.5898 0.43359 11.766-3.8867l17.797-35.594 19.348 9.668-64.41 128.63c-1.0391 2.0742-1.207 4.4805-0.47266 6.6836 0.73438 2.1992 2.3164 4.0195 4.3945 5.0586 4.3242 2.1602 9.582 0.40625 11.742-3.9219l60.191-120.29 2.0195 12.094v104.28c0 4.832 3.918 8.75 8.75 8.75s8.75-3.918 8.75-8.75v-22.629l2.5625 2.5625v0.003906c3.4336 3.3164 8.8906 3.2656 12.266-0.10938s3.4258-8.832 0.10938-12.266l-14.938-14.934v-49.711l41.57-4.1562-14.699 36.75c-1.793 4.4883 0.39453 9.582 4.8828 11.375 4.4883 1.793 9.582-0.39062 11.375-4.8828l6.125-15.312 3.125 17.598-8.5234 54.363c-0.35938 2.293 0.20703 4.6367 1.5742 6.5117 1.3633 1.875 3.4219 3.1289 5.7148 3.4883 0.44922 0.066406 0.90234 0.10156 1.3555 0.097656 4.3047-0.003906 7.9688-3.1406 8.6367-7.3945l8.75-55.816c0.16016-0.95312 0.16016-1.9297 0-2.8867l-8.1914-45.902 17.93-1.75c3.9297-0.39844 7.1055-3.375 7.7539-7.2695 2.5195-15.598 1.2812-31.566-3.6055-46.586l18.664-18.664c2.5195-2.5117 3.2734-6.3008 1.8984-9.582zm-77.078-30.582c-5.2969 0.23438-10.543-1.1172-15.07-3.8828-4.4609-2.6562-8.0664-6.5391-10.387-11.184l30.52-20.344zm-28.668-204.65 6.2383-3.1328c6.2188 17.723 5.0039 37.207-3.3672 54.023l-4.8281 9.5742v-0.003906c-3.5625 7.0977-4.1641 15.316-1.6719 22.855l0.76172 2.457v0.003906c1.8398 5.4102-0.16406 11.391-4.9023 14.594-3.6562 2.3203-8.2305 2.6641-12.195 0.91797 2.5352-9.4414 3.8359-19.176 3.875-28.953v-52.5c0-2.7227-0.15625-5.4336-0.35156-8.1367 4.8633-4.7031 10.406-8.6445 16.441-11.699zm-251.88 100.4c-4.8008-3.2578-6.8008-9.3359-4.875-14.805l0.61328-2.0117v-0.003906c2.5742-7.6211 2-15.957-1.6016-23.152l-4.7773-9.4492c-4.7773-9.6875-7.2812-20.34-7.3242-31.141 0.019531-7.8203 1.3438-15.586 3.9219-22.969l6.293 3.1602h-0.003906c6.043 3.0586 11.586 7.0117 16.449 11.723-0.19141 2.6875-0.41016 5.3555-0.41016 8.0859v52.5c0.039062 9.7734 1.3398 19.504 3.875 28.945-3.9492 1.7344-8.5039 1.4023-12.16-0.88281zm328.41 146.94-22.078 22.078c-4.0742-5.8672-6.8789-12.52-8.2227-19.531l2.543-2.5469zm-4.1914 53.234-72.398 7.2461-1.6992-10.148c0.18359-0.15625 0.42188-0.21875 0.59375-0.39453l33.383-33.371v-0.003906c3.3398 9.2266 8.625 17.625 15.496 24.625 3.418 3.4141 8.957 3.4141 12.375 0l10.824-10.824c1.5469 7.5195 2.0273 15.219 1.4258 22.871z"/>
 </g>
</svg>
